<svg width="16" height="16" viewBox="0 0 16 16" fill="none" xmlns="http://www.w3.org/2000/svg">
<path fill-rule="evenodd" clip-rule="evenodd" d="M2 4.00065C2 3.63246 2.29848 3.33398 2.66667 3.33398H8.66667C9.03486 3.33398 9.33333 3.63246 9.33333 4.00065C9.33333 4.36884 9.03486 4.66732 8.66667 4.66732H2.66667C2.29848 4.66732 2 4.36884 2 4.00065Z" fill="#8E91A0"/>
<path fill-rule="evenodd" clip-rule="evenodd" d="M2 8.00065C2 7.63246 2.29848 7.33398 2.66667 7.33398H7.33333C7.70152 7.33398 8 7.63246 8 8.00065C8 8.36884 7.70152 8.66732 7.33333 8.66732H2.66667C2.29848 8.66732 2 8.36884 2 8.00065Z" fill="#8E91A0"/>
<path fill-rule="evenodd" clip-rule="evenodd" d="M2 12.0007C2 11.6325 2.29848 11.334 2.66667 11.334H7.33333C7.70152 11.334 8 11.6325 8 12.0007C8 12.3688 7.70152 12.6673 7.33333 12.6673H2.66667C2.29848 12.6673 2 12.3688 2 12.0007Z" fill="#8E91A0"/>
<path fill-rule="evenodd" clip-rule="evenodd" d="M9.52827 9.52925C9.78862 9.2689 10.2107 9.2689 10.4711 9.52925L11.9997 11.0578L13.5283 9.52925C13.7886 9.2689 14.2107 9.2689 14.4711 9.52925C14.7314 9.7896 14.7314 10.2117 14.4711 10.4721L12.4711 12.4721C12.2107 12.7324 11.7886 12.7324 11.5283 12.4721L9.52827 10.4721C9.26792 10.2117 9.26792 9.7896 9.52827 9.52925Z" fill="#8E91A0"/>
<path fill-rule="evenodd" clip-rule="evenodd" d="M11.9997 3.33398C12.3679 3.33398 12.6663 3.63246 12.6663 4.00065V12.0007C12.6663 12.3688 12.3679 12.6673 11.9997 12.6673C11.6315 12.6673 11.333 12.3688 11.333 12.0007V4.00065C11.333 3.63246 11.6315 3.33398 11.9997 3.33398Z" fill="#8E91A0"/>
</svg>
