<svg width="40" height="40" viewBox="0 0 40 40" fill="none" xmlns="http://www.w3.org/2000/svg">
<circle cx="20" cy="20" r="20" fill="url(#paint0_linear_715_7774)"/>
<path fill-rule="evenodd" clip-rule="evenodd" d="M20 12C18.3431 12 17 13.3431 17 15C17 16.6569 18.3431 18 20 18C21.6569 18 23 16.6569 23 15C23 13.3431 21.6569 12 20 12ZM15 15C15 12.2386 17.2386 10 20 10C22.7614 10 25 12.2386 25 15C25 17.7614 22.7614 20 20 20C17.2386 20 15 17.7614 15 15Z" fill="#8E91A0"/>
<path fill-rule="evenodd" clip-rule="evenodd" d="M18 24C17.2044 24 16.4413 24.3161 15.8787 24.8787C15.3161 25.4413 15 26.2044 15 27V29C15 29.5523 14.5523 30 14 30C13.4477 30 13 29.5523 13 29V27C13 25.6739 13.5268 24.4021 14.4645 23.4645C15.4021 22.5268 16.6739 22 18 22H22C23.3261 22 24.5979 22.5268 25.5355 23.4645C26.4732 24.4021 27 25.6739 27 27V29C27 29.5523 26.5523 30 26 30C25.4477 30 25 29.5523 25 29V27C25 26.2044 24.6839 25.4413 24.1213 24.8787C23.5587 24.3161 22.7956 24 22 24H18Z" fill="#8E91A0"/>
<defs>
<linearGradient id="paint0_linear_715_7774" x1="0" y1="20" x2="40" y2="20" gradientUnits="userSpaceOnUse">
<stop stop-color="#FDFBFB"/>
<stop offset="1" stop-color="#EBEDEE"/>
</linearGradient>
</defs>
</svg>
